<svg viewBox="0 0 16.6671 15.5133" fill="none" xmlns="http://www.w3.org/2000/svg" aria-hidden="true">
  <path fill-rule="evenodd" clip-rule="evenodd" d="M4.63052 2.93148C5.69302 2.11581 6.99387 1.67147 8.3333 1.66667C9.58139 1.67183 10.7981 2.05868 11.82 2.77533C12.8427 3.49252 13.6213 4.50562 14.0511 5.67843C14.2095 6.11056 14.6882 6.33248 15.1203 6.1741C15.5524 6.01573 15.7743 5.53703 15.616 5.1049C15.069 3.61252 14.0783 2.32338 12.7769 1.41077C11.4756 0.49816 9.92603 0.0058422 8.33659 0L8.33353 0.833329L8.33093 0C6.62526 0.00532861 4.96857 0.570802 3.61561 1.60946C2.84492 2.20112 2.19709 2.92766 1.69982 3.74774L1.64202 3.51635C1.53047 3.06984 1.07807 2.79829 0.631555 2.90984C0.18504 3.02139 -0.0865041 3.47379 0.0250439 3.9203L0.601711 6.22864C0.655302 6.44316 0.791951 6.62758 0.981572 6.74131C1.17119 6.85504 1.39824 6.88875 1.61272 6.83501L3.92106 6.25668C4.36749 6.14483 4.63873 5.69224 4.52688 5.2458C4.41503 4.79936 3.96244 4.52813 3.51601 4.63998L3.03814 4.7597C3.43912 4.05458 3.97895 3.4317 4.63052 2.93148ZM16.0654 9.28469C16.0118 9.07017 15.8751 8.88574 15.6855 8.77201C15.4959 8.65829 15.2688 8.62458 15.0543 8.67832L12.746 9.25665C12.2996 9.3685 12.0283 9.82108 12.1402 10.2675C12.252 10.714 12.7046 10.9852 13.1511 10.8733L13.6289 10.7536C13.2279 11.4587 12.6881 12.0816 12.0365 12.5818C10.974 13.3975 9.67318 13.8418 8.33375 13.8467C7.08566 13.8415 5.86899 13.4546 4.84708 12.738C3.8244 12.0208 3.0458 11.0077 2.61597 9.83489C2.45759 9.40276 1.97889 9.18084 1.54676 9.33922C1.11463 9.49759 0.892713 9.97629 1.05109 10.4084C1.59805 11.9008 2.58879 13.1899 3.89014 14.1026C5.19148 15.0152 6.74103 15.5075 8.33047 15.5133L8.33613 15.5133C10.0418 15.508 11.6985 14.9425 13.0514 13.9039C13.8221 13.3122 14.47 12.5857 14.9672 11.7656L15.025 11.997C15.1366 12.4435 15.589 12.715 16.0355 12.6035C16.482 12.4919 16.7536 12.0395 16.642 11.593L16.0654 9.28469Z" fill="white"/>
</svg>
