<svg viewBox="0 0 17.2222 13.3333" fill="none" xmlns="http://www.w3.org/2000/svg" aria-hidden="true">
  <path fill-rule="evenodd" clip-rule="evenodd" d="M0.887681 0.843657C1.45127 0.300201 2.2094 0 2.99383 0C3.77826 0 4.53639 0.300201 5.09997 0.843657C5.45885 1.18972 5.72014 1.61682 5.86291 2.08333H16.3889C16.8491 2.08333 17.2222 2.45643 17.2222 2.91667C17.2222 3.3769 16.8491 3.75 16.3889 3.75H5.86291C5.72015 4.21651 5.45885 4.64361 5.09997 4.98968C4.53639 5.53313 3.77826 5.83333 2.99383 5.83333C2.2094 5.83333 1.45127 5.53313 0.887681 4.98968C0.323066 4.44523 0 3.7002 0 2.91667C0 2.13314 0.323066 1.38811 0.887681 0.843657ZM4.32099 2.91469L4.32098 2.91667L4.32099 2.91865C4.32044 3.2395 4.1883 3.55347 3.94308 3.78994C3.69632 4.02788 3.35539 4.16667 2.99383 4.16667C2.63226 4.16667 2.29133 4.02788 2.04457 3.78994C1.79885 3.55298 1.66667 3.23821 1.66667 2.91667C1.66667 2.59513 1.79885 2.28035 2.04457 2.0434C2.29133 1.80545 2.63226 1.66667 2.99383 1.66667C3.35539 1.66667 3.69632 1.80545 3.94308 2.0434C4.1883 2.27986 4.32044 2.59383 4.32099 2.91469ZM7.52879 7.71803C7.88976 7.57385 8.27565 7.5 8.66468 7.5C9.05371 7.5 9.4396 7.57385 9.80057 7.71803C10.1616 7.86223 10.4915 8.07433 10.7708 8.34366C11.0502 8.61304 11.2735 8.9345 11.4264 9.29051C11.4676 9.38634 11.5034 9.4841 11.5337 9.58336H16.3889C16.8491 9.58336 17.2222 9.95645 17.2222 10.4167C17.2222 10.8769 16.8491 11.25 16.3889 11.25H11.5337C11.5034 11.3493 11.4676 11.447 11.4264 11.5428C11.2735 11.8988 11.0502 12.2203 10.7708 12.4897C10.4915 12.759 10.1616 12.9711 9.80057 13.1153C9.4396 13.2595 9.05371 13.3333 8.66468 13.3333C8.27565 13.3333 7.88976 13.2595 7.52879 13.1153C7.16778 12.9711 6.83783 12.759 6.55853 12.4897C6.27917 12.2203 6.05589 11.8988 5.90296 11.5428C5.86181 11.447 5.82599 11.3493 5.79563 11.25H0.940501C0.480264 11.25 0.107168 10.8769 0.107168 10.4167C0.107168 9.95645 0.480264 9.58336 0.940501 9.58336H5.79561C5.82598 9.4841 5.8618 9.38634 5.90296 9.29051C6.05589 8.9345 6.27917 8.61304 6.55853 8.34366C6.83783 8.07433 7.16778 7.86223 7.52879 7.71803ZM9.99183 10.4125C9.99183 10.4139 9.99182 10.4153 9.99182 10.4167C9.99182 10.4181 9.99183 10.4195 9.99183 10.4208C9.99127 10.5793 9.95867 10.7369 9.89503 10.885C9.83081 11.0345 9.73581 11.1724 9.61393 11.2899C9.49199 11.4075 9.3456 11.5023 9.18236 11.5675C9.01908 11.6327 8.84309 11.6667 8.66468 11.6667C8.48627 11.6667 8.31028 11.6327 8.147 11.5675C7.98376 11.5023 7.83737 11.4075 7.71543 11.2899C7.59355 11.1724 7.49855 11.0345 7.43433 10.885C7.3707 10.7369 7.3381 10.5794 7.33753 10.4209L7.33754 10.4167L7.33753 10.4124C7.3381 10.254 7.3707 10.0964 7.43433 9.94831C7.49855 9.79879 7.59355 9.66092 7.71543 9.5434C7.83737 9.42581 7.98376 9.331 8.147 9.2658C8.31028 9.20059 8.48627 9.16667 8.66468 9.16667C8.84309 9.16667 9.01908 9.20059 9.18236 9.2658C9.3456 9.331 9.49199 9.42581 9.61393 9.5434C9.73581 9.66092 9.83081 9.79879 9.89503 9.94831C9.95867 10.0965 9.99128 10.2541 9.99183 10.4125Z" fill="white"/>
</svg>
