<svg width="20" height="20" viewBox="0 0 20 20" fill="none" xmlns="http://www.w3.org/2000/svg" aria-hidden="true">
  <path d="M9.58483 0.416667C4.29884 0.416667 0.00146484 4.71403 0.00146484 10C0.00146484 15.286 4.29884 19.5833 9.58483 19.5833C14.8707 19.5833 19.1682 15.286 19.1682 10C19.1682 4.71403 14.8707 0.416667 9.58483 0.416667ZM12.3085 10.9583H10.5432V12.7237C10.5432 13.1372 10.2002 13.4802 9.78658 13.4802C9.373 13.4802 9.03 13.1372 9.03 12.7237V10.9583H7.26462C6.85103 10.9583 6.50805 10.6153 6.50805 10.2017C6.50805 9.78816 6.85103 9.44517 7.26462 9.44517H9.03V7.67982C9.03 7.26622 9.373 6.92324 9.78658 6.92324C10.2002 6.92324 10.5432 7.26622 10.5432 7.67982V9.44517H12.3085C12.7221 9.44517 13.0651 9.78816 13.0651 10.2017C13.0651 10.6153 12.7221 10.9583 12.3085 10.9583Z" fill="#017EA7"/>
</svg>
